<svg width="137" height="29" viewBox="0 0 137 29" fill="none" xmlns="http://www.w3.org/2000/svg">
<path d="M6.17375 28.1214C5.79407 28.0267 5.41438 28.0267 5.0347 27.9321C4.65501 27.8374 4.27532 27.7427 3.89563 27.5533C2.94642 27.1746 2.18704 26.6065 1.61751 25.849C1.04798 25.1862 0.573379 24.334 0.288614 23.2925C0.00384915 22.3456 -0.0910768 21.3041 0.0987665 20.3573C0.193688 19.3157 0.573376 18.3689 0.953063 17.422C1.42767 16.4752 1.90228 15.5283 2.66166 14.7709C3.32611 13.9187 4.08548 13.2559 4.84485 12.7825C5.88899 12.1197 7.02805 11.6463 8.16711 11.2675C8.54679 11.1728 8.92648 11.0781 9.30617 11.0781C9.68586 11.0781 10.0655 11.0781 10.4452 11.1728C11.2995 11.3622 11.8691 11.7409 12.2487 12.309C12.6284 12.8771 12.9132 13.5399 13.0081 14.2027C13.103 14.8655 13.103 15.623 12.9132 16.3805C12.7233 17.138 12.4386 17.8008 12.1538 18.3689C11.964 18.6529 11.6792 18.937 11.4894 19.221C11.2995 19.5051 11.0148 19.6945 10.73 19.8838C10.6351 19.9785 10.5401 19.9785 10.4452 20.0732C10.3503 20.1679 10.1605 20.2626 10.0655 20.2626C9.97062 20.2626 9.78077 20.3573 9.68585 20.3573C9.59093 20.3573 9.40109 20.3573 9.30617 20.2626C9.21125 20.1679 9.21124 20.0732 9.21124 20.0732C9.21124 19.9785 9.21125 19.8838 9.30617 19.8838C9.40109 19.7891 9.40109 19.6945 9.49601 19.6945C9.59093 19.5998 9.59093 19.5998 9.68585 19.5051C9.8757 19.3157 10.0655 19.221 10.2554 19.0317C10.4452 18.937 10.5401 18.7476 10.6351 18.4636C10.8249 18.0848 11.0148 17.7061 11.1097 17.2327C11.2046 16.7592 11.2995 16.2858 11.2995 15.7177C11.2995 15.2443 11.2046 14.7709 11.0148 14.2974C10.8249 13.824 10.5401 13.5399 10.1605 13.2559C9.59093 12.8771 9.11632 12.7825 8.54679 12.6878C7.97726 12.6878 7.40774 12.7825 6.93313 12.9718C6.3636 13.1612 5.88899 13.4453 5.50931 13.9187C5.0347 14.2974 4.65501 14.7709 4.37024 15.2443C3.80071 16.0964 3.42103 17.0433 3.13626 18.0848C2.8515 19.1264 2.75657 20.1679 2.8515 21.1147C2.8515 21.4935 2.94642 21.9669 3.13626 22.4403C3.32611 22.9138 3.42103 23.2925 3.61087 23.6712C3.80072 24.05 4.1804 24.5234 4.56009 24.9021C4.93977 25.2809 5.41438 25.5649 5.79407 25.849C6.26867 26.2277 6.83821 26.5118 7.40774 26.6065C7.97727 26.7958 8.64171 26.7958 9.21124 26.7958C9.78077 26.7958 10.4452 26.7011 11.0148 26.5118C11.5843 26.3224 12.1538 26.0384 12.6284 25.6596C12.9132 25.4702 13.198 25.1862 13.3878 24.9968C13.6726 24.7128 13.8624 24.5234 14.0523 24.2393C14.4319 23.7659 14.7167 23.2925 15.0015 22.7244C15.2862 22.1563 15.4761 21.5882 15.6659 21.1147C15.8558 20.4519 15.9507 19.7892 15.9507 19.1264C15.9507 18.1795 15.7608 17.2327 15.4761 16.2858C15.0964 15.339 14.8116 14.4868 14.5269 13.5399C14.337 13.0665 14.2421 12.4984 14.0523 12.025C13.9573 11.5516 13.7675 10.9835 13.5776 10.51C13.3878 9.84724 13.2929 9.18444 13.2929 8.52164C13.2929 7.85885 13.3878 7.19606 13.5776 6.53327C13.7675 5.87047 13.9573 5.20768 14.2421 4.63957C14.5269 4.07146 14.9065 3.50335 15.3811 2.93524C15.6659 2.65118 15.9507 2.36713 16.2354 2.08308C16.5202 1.79903 16.805 1.60964 17.1847 1.42027C17.5643 1.2309 17.944 0.946852 18.3237 0.757482C18.7034 0.568112 19.0831 0.378743 19.5577 0.284058C20.1272 0.0946878 20.6018 0 21.1714 0C21.7409 0 22.2155 5.7777e-06 22.5003 0.0946907C22.5952 0.0946907 22.6901 0.189381 22.785 0.189381C22.88 0.189381 22.9749 0.189381 22.9749 0.189381C23.6393 0.378751 24.1139 0.6628 24.4936 1.04154C24.8733 1.42028 25.1581 1.98839 25.3479 2.5565C25.5378 3.12461 25.6327 3.69272 25.6327 4.35551C25.6327 5.01831 25.5378 5.58642 25.4429 6.05984C25.253 6.62795 25.0632 7.19606 24.8733 7.66948C24.6835 8.14291 24.3038 8.61633 23.8292 8.99507C23.5444 9.27912 23.1647 9.56318 22.785 9.75255C22.4054 9.94192 21.9307 10.1313 21.5511 10.1313C21.4561 10.1313 21.2663 10.226 21.0764 10.226C20.8866 10.226 20.6968 10.226 20.6018 10.226C20.412 10.226 20.3171 10.1313 20.2222 10.0366C20.1272 9.94192 20.0323 9.84724 20.0323 9.65787C20.0323 9.4685 20.0323 9.27913 20.2222 9.27913C20.3171 9.27913 20.5069 9.27913 20.6968 9.27913C21.1714 9.27913 21.5511 9.08976 21.8358 8.90039C22.1206 8.71102 22.4054 8.33227 22.6901 8.04822C22.88 7.66948 23.0698 7.29074 23.2596 6.912C23.3546 6.53326 23.4495 6.05983 23.5444 5.6811C23.5444 5.30236 23.5444 5.01831 23.5444 4.63957C23.5444 4.26083 23.4495 3.88209 23.3546 3.50335C23.2596 3.12461 23.0698 2.84055 22.88 2.46181C22.6901 2.17776 22.4054 1.89371 22.0257 1.79902C21.646 1.60965 21.2663 1.51496 20.7917 1.51496C20.412 1.51496 20.0323 1.60965 19.5577 1.79902C19.178 1.98839 18.7983 2.17776 18.5136 2.46181C18.2288 2.74587 17.944 3.02992 17.7542 3.40866C17.4694 3.7874 17.2796 4.26083 17.1847 4.82894C16.9948 5.30236 16.8999 5.87048 16.8999 6.3439C16.8999 7.10138 16.9948 7.85885 17.1847 8.61633C17.3745 9.37381 17.6593 10.0366 17.944 10.7941C18.1339 11.1728 18.2288 11.6463 18.4186 12.025C18.6085 12.4037 18.7034 12.8771 18.8933 13.2559C19.2729 14.2974 19.4628 15.4337 19.7476 16.4752C19.9374 17.6114 19.9374 18.6529 19.7476 19.7892C19.5577 20.6413 19.2729 21.4935 18.7983 22.3456C18.3237 23.1978 17.8491 23.9553 17.2796 24.6181C16.7101 25.2809 16.1405 25.7543 15.3811 26.2277C14.7167 26.7012 13.9573 27.0799 13.103 27.4586C12.2487 27.8374 11.4894 28.0267 10.6351 28.2161C9.78077 28.4055 8.92648 28.5002 8.16711 28.5002C7.02805 28.2161 6.64836 28.1214 6.17375 28.1214Z" fill="#2A2524"/>
<path d="M20.8875 28.2162C20.4129 28.2162 19.9383 28.0268 19.5586 27.8374C18.9891 27.5534 18.6094 27.0799 18.4195 26.6065C18.2297 26.1331 18.1348 25.565 18.1348 24.9969C18.1348 24.4288 18.2297 23.8606 18.4195 23.2925C18.6094 22.7244 18.7992 22.251 18.9891 21.7776C19.4637 20.6414 20.1281 19.5051 20.8875 18.5583C21.6469 17.5168 22.5961 16.6646 23.6402 15.9071C24.3047 15.4337 25.0641 15.0549 25.8234 14.6762C26.5828 14.3922 27.4371 14.1081 28.1965 14.0134C29.0508 13.9187 29.6203 14.1081 29.9051 14.5815C30.1898 15.055 30.2848 15.6231 30.2848 16.0965C30.2848 16.5699 30.0949 17.0433 29.8101 17.4221C29.5254 17.8008 29.2406 18.2742 28.766 18.653C28.3863 19.0317 27.9117 19.3158 27.4371 19.6945C26.9625 19.9786 26.4879 20.2626 26.0133 20.5467C25.5387 20.7361 25.0641 20.9254 24.6844 21.1148C24.2098 21.3042 23.8301 21.3988 23.5453 21.5882C23.1656 21.6829 22.8809 21.8723 22.5961 22.0616C22.3113 22.251 22.1215 22.5351 21.9316 22.8191C21.7418 23.1032 21.5519 23.4819 21.457 23.9553C21.3621 24.2394 21.3621 24.5234 21.3621 24.8075C21.3621 25.0916 21.457 25.3756 21.5519 25.6597C21.6469 25.9437 21.8367 26.1331 22.1215 26.2278C22.3113 26.3225 22.691 26.4171 23.0707 26.4171C23.4504 26.4171 23.7352 26.3225 24.1148 26.2278C24.4945 26.1331 24.7793 25.9437 25.0641 25.7544C25.3488 25.565 25.6336 25.2809 25.9184 25.0915C26.2031 24.8075 26.4879 24.6181 26.6777 24.3341C27.2473 23.766 27.7219 23.1032 28.2914 22.4404C28.766 21.7776 29.3355 21.1148 29.7152 20.452C29.7152 20.3573 29.8101 20.2626 29.9051 20.0733C30 19.8839 30.0949 19.6945 30.1898 19.5051C30.2848 19.3158 30.3797 19.2211 30.5695 19.2211C30.6644 19.2211 30.7594 19.3158 30.8543 19.5998C30.9492 19.8839 30.8543 20.2626 30.5695 20.5467C30.3797 20.8307 30.0949 21.1148 29.9051 21.3988C29.4305 21.967 28.9558 22.6297 28.4812 23.2925C28.0066 23.9553 27.532 24.5234 27.0574 25.0915C26.5828 25.6597 26.0133 26.2278 25.3488 26.7012C24.7793 27.1746 24.0199 27.5534 23.2605 27.9321C22.8809 28.1215 22.5012 28.2162 22.0266 28.2162C21.7418 28.2162 21.3621 28.2162 20.8875 28.2162ZM23.2605 20.7361C23.4504 20.7361 23.5453 20.6414 23.7352 20.5467C23.925 20.452 24.0199 20.3573 24.0199 20.3573C24.5894 20.0732 25.0641 19.6945 25.5387 19.2211C26.0133 18.7477 26.4879 18.2742 26.8676 17.8008C27.0574 17.5168 27.3422 17.2327 27.532 16.854C27.7219 16.4752 27.8168 16.0965 27.9117 15.7177C27.9117 15.5284 27.9117 15.4337 27.8168 15.2443C27.7219 15.1496 27.532 15.055 27.4371 15.055C27.2473 15.1496 26.9625 15.2443 26.7726 15.4337C26.5828 15.6231 26.393 15.8124 26.2031 16.0018C26.1082 16.0965 26.0133 16.2859 25.8234 16.3805C25.7285 16.4752 25.6336 16.6646 25.5387 16.7593C25.2539 17.138 24.9691 17.5168 24.6844 17.8955C24.3996 18.2742 24.1148 18.653 23.8301 19.0317C23.8301 19.1264 23.7352 19.2211 23.5453 19.4105C23.4504 19.5998 23.3555 19.7892 23.1656 19.9786C23.0707 20.1679 22.9758 20.3573 22.9758 20.5467C22.9758 20.7361 23.0707 20.8307 23.2605 20.7361Z" fill="#2A2524"/>
<path d="M29.7147 28.1214C29.4299 28.0267 29.1452 27.932 28.9553 27.7426C28.4807 27.3639 28.196 26.9851 28.101 26.5117C28.0061 26.0383 27.9112 25.4702 28.0061 24.9021C28.101 24.334 28.196 23.8605 28.3858 23.2924C28.5756 22.7243 28.7655 22.3456 29.0503 21.8721C29.8096 20.5466 30.569 19.221 31.3284 17.8954C32.1827 16.5698 33.037 15.3389 33.8913 14.108C34.176 13.7292 34.3659 13.4452 34.5557 13.1611C34.6506 13.0665 34.6506 12.8771 34.7455 12.7824C34.8405 12.593 34.9354 12.4983 35.0303 12.4983C34.9354 12.4037 34.7456 12.309 34.5557 12.309C34.3659 12.309 34.0811 12.309 33.8913 12.309C33.7014 12.309 33.5116 12.2143 33.3217 12.2143C33.1319 12.1196 33.1319 12.0249 33.1319 11.7409C33.1319 11.5515 33.3217 11.3621 33.4166 11.3621C33.6065 11.2674 33.7963 11.2674 33.9862 11.2674C34.176 11.2674 34.4608 11.2674 34.6506 11.2674C34.8405 11.2674 35.0303 11.2674 35.2202 11.2674C35.5049 11.2674 35.6948 11.1727 35.8846 10.9834C36.0745 10.794 36.2643 10.6046 36.4541 10.4153C36.644 10.2259 36.7389 9.94184 36.9287 9.75247C37.0237 9.5631 37.2135 9.27905 37.3084 9.08968C37.4983 8.71094 37.6881 8.3322 37.878 7.95346C38.0678 7.57472 38.2577 7.19599 38.4475 6.81725C38.5424 6.62788 38.5424 6.53319 38.6373 6.24913C38.7323 6.05976 38.7323 5.87039 38.8272 5.68102C38.9221 5.49165 38.9221 5.30229 39.017 5.11292C39.1119 4.92355 39.2069 4.82886 39.3018 4.63949C39.4916 4.54481 39.5866 4.45012 39.8713 4.45012C40.0612 4.45012 40.251 4.35543 40.5358 4.35543C40.7256 4.35543 41.0104 4.35543 41.2002 4.35543C41.3901 4.35543 41.6748 4.35543 41.8647 4.35543C42.0545 4.35543 42.3393 4.26074 42.624 4.26074C42.9088 4.26074 43.0987 4.35544 43.2885 4.63949C43.3834 4.82886 43.3834 5.01823 43.2885 5.30228C43.1936 5.49165 43.0987 5.7757 43.0037 5.96507C42.8139 6.4385 42.624 6.81724 42.4342 7.19598C42.1494 7.57472 41.9596 7.95346 41.6748 8.42689C41.3901 8.90031 41.1053 9.37374 40.7256 9.84716C40.3459 10.3206 40.1561 10.794 39.9662 11.3621C40.0612 11.3621 40.251 11.4568 40.3459 11.3621C40.5358 11.3621 40.7256 11.3621 40.9155 11.3621C41.1053 11.3621 41.2951 11.3621 41.3901 11.3621C41.5799 11.3621 41.6748 11.4568 41.7698 11.4568C41.8647 11.5515 41.9596 11.7409 41.8647 11.9302C41.7697 12.1196 41.6748 12.309 41.485 12.4037C41.2002 12.593 40.9155 12.593 40.6307 12.593C40.3459 12.593 39.9662 12.4983 39.6815 12.593C39.3018 12.593 39.017 12.6877 38.7323 12.9718C38.5424 13.1611 38.2576 13.4452 38.0678 13.8239C37.2135 15.2442 36.2643 16.6645 35.41 18.0848C34.5557 19.505 33.6065 20.9253 32.6573 22.2509C32.3725 22.6296 32.1827 23.0084 31.9928 23.3871C31.803 23.7659 31.6131 24.1446 31.5182 24.618C31.4233 24.9021 31.4233 25.1861 31.5182 25.4702C31.6131 25.6595 31.7081 25.8489 31.8979 25.9436C32.0877 26.0383 32.2776 26.133 32.5624 26.0383C32.8471 26.0383 33.037 25.9436 33.3217 25.7542C33.7963 25.4702 34.2709 25.1861 34.6506 24.7127C35.0303 24.334 35.41 23.8605 35.6948 23.3871C36.0745 22.9137 36.5491 22.3456 36.9287 21.8721C37.3084 21.3987 37.6881 20.8306 38.1627 20.3572C38.2576 20.2625 38.3526 20.1678 38.4475 19.9784C38.6373 19.7891 38.8272 19.5997 39.017 19.4103C39.2069 19.221 39.3967 19.0316 39.5866 18.9369C39.7764 18.8422 39.8713 18.8422 39.9662 18.9369C40.0612 19.1263 40.0612 19.3157 39.9662 19.5997C39.8713 19.8838 39.6815 20.1678 39.4916 20.4519C39.3018 20.7359 39.1119 21.02 38.9221 21.304C38.7323 21.5881 38.5424 21.7775 38.5424 21.8721C38.1627 22.3456 37.783 22.819 37.4034 23.2924C37.0237 23.7658 36.5491 24.1446 36.1694 24.618C35.7897 24.9967 35.3151 25.4702 34.8405 26.0383C34.3659 26.6064 33.7963 27.0798 33.2268 27.4586C32.6573 27.8373 32.0877 28.216 31.4233 28.4054C30.9487 28.3107 30.2842 28.3107 29.7147 28.1214Z" fill="#2A2524"/>
<path d="M38.6366 28.1214C38.3518 28.0267 38.067 27.932 37.8772 27.7426C37.4026 27.3639 37.1178 26.9851 37.0229 26.5117C36.928 26.0383 36.8331 25.4702 36.928 24.9021C37.0229 24.334 37.1178 23.8605 37.3077 23.2924C37.4975 22.7243 37.6874 22.3456 37.9721 21.8721C38.7315 20.5466 39.4909 19.221 40.2502 17.8954C41.1045 16.5698 41.9588 15.3389 42.8131 14.108C43.0979 13.7292 43.2877 13.4452 43.4776 13.1611C43.5725 13.0665 43.5725 12.8771 43.6674 12.7824C43.7623 12.593 43.8573 12.4983 43.9522 12.4983C43.8573 12.4037 43.6674 12.309 43.4776 12.309C43.2877 12.309 43.003 12.309 42.8131 12.309C42.6233 12.309 42.4334 12.2143 42.2436 12.2143C42.0538 12.1196 42.0538 12.0249 42.0538 11.7409C42.0538 11.5515 42.2436 11.3621 42.3385 11.3621C42.5284 11.2674 42.7182 11.2674 42.908 11.2674C43.0979 11.2674 43.3827 11.2674 43.5725 11.2674C43.7623 11.2674 43.9522 11.2674 44.142 11.2674C44.4268 11.2674 44.6166 11.1727 44.8065 10.9834C44.9963 10.794 45.1862 10.6046 45.376 10.4153C45.5659 10.2259 45.6608 9.94184 45.8506 9.75247C45.9455 9.5631 46.1354 9.27905 46.2303 9.08968C46.4201 8.71094 46.61 8.3322 46.7998 7.95346C46.9897 7.57472 47.1795 7.19599 47.3694 6.81725C47.4643 6.62788 47.4643 6.53319 47.5592 6.24913C47.6541 6.05976 47.6541 5.87039 47.7491 5.68102C47.844 5.49165 47.844 5.30229 47.9389 5.11292C48.0338 4.92355 48.1287 4.82886 48.2237 4.63949C48.4135 4.54481 48.5084 4.45012 48.7932 4.45012C48.983 4.45012 49.1729 4.35543 49.4576 4.35543C49.6475 4.35543 49.9323 4.35543 50.1221 4.35543C50.3119 4.35543 50.5967 4.35543 50.7865 4.35543C50.9764 4.35543 51.2612 4.26074 51.5459 4.26074C51.8307 4.26074 52.0205 4.35544 52.2104 4.63949C52.3053 4.82886 52.3053 5.01823 52.2104 5.30228C52.1154 5.49165 52.0205 5.7757 51.9256 5.96507C51.7358 6.4385 51.5459 6.81724 51.3561 7.19598C51.0713 7.57472 50.8815 7.95346 50.5967 8.42689C50.3119 8.90031 50.0272 9.37374 49.6475 9.84716C49.2678 10.3206 49.078 10.794 48.8881 11.3621C48.983 11.3621 49.1729 11.4568 49.2678 11.3621C49.4576 11.3621 49.6475 11.3621 49.8373 11.3621C50.0272 11.3621 50.217 11.3621 50.3119 11.3621C50.5018 11.3621 50.5967 11.4568 50.6916 11.4568C50.7865 11.5515 50.8815 11.7409 50.7865 11.9302C50.6916 12.1196 50.5967 12.309 50.4069 12.4037C50.1221 12.593 49.8373 12.593 49.5526 12.593C49.2678 12.593 48.8881 12.4983 48.6033 12.593C48.2237 12.593 47.9389 12.6877 47.6541 12.9718C47.4643 13.1611 47.1795 13.4452 46.9897 13.8239C46.1354 15.2442 45.1862 16.6645 44.3319 18.0848C43.4776 19.505 42.5284 20.9253 41.5792 22.2509C41.2944 22.6296 41.1045 23.0084 40.9147 23.3871C40.7249 23.7659 40.535 24.1446 40.4401 24.618C40.3452 24.9021 40.3452 25.1861 40.4401 25.4702C40.535 25.6595 40.6299 25.8489 40.8198 25.9436C41.0096 26.0383 41.1995 26.133 41.4842 26.0383C41.769 26.0383 41.9588 25.9436 42.2436 25.7542C42.7182 25.4702 43.1928 25.1861 43.5725 24.7127C43.9522 24.334 44.3319 23.8605 44.6166 23.3871C44.9963 22.9137 45.4709 22.3456 45.8506 21.8721C46.2303 21.3987 46.61 20.8306 47.0846 20.3572C47.1795 20.2625 47.2744 20.1678 47.3694 19.9784C47.5592 19.7891 47.7491 19.5997 47.9389 19.4103C48.1287 19.221 48.3186 19.0316 48.5084 18.9369C48.6983 18.8422 48.7932 18.8422 48.8881 18.9369C48.983 19.1263 48.983 19.3157 48.8881 19.5997C48.7932 19.8838 48.6033 20.1678 48.4135 20.4519C48.2237 20.7359 48.0338 21.02 47.844 21.304C47.6541 21.5881 47.4643 21.7775 47.4643 21.8721C47.0846 22.3456 46.7049 22.819 46.3252 23.2924C45.9455 23.7658 45.4709 24.1446 45.0912 24.618C44.7116 24.9967 44.237 25.4702 43.7623 26.0383C43.2877 26.6064 42.7182 27.0798 42.1487 27.4586C41.5791 27.8373 41.0096 28.216 40.3452 28.4054C39.8706 28.3107 39.301 28.3107 38.6366 28.1214Z" fill="#2A2524"/>
<path d="M48.6043 28.2162C48.1297 28.2162 47.6551 28.0268 47.2754 27.8374C46.7059 27.5534 46.3262 27.0799 46.1363 26.6065C45.9465 26.1331 45.8516 25.565 45.8516 24.9969C45.8516 24.4288 45.9465 23.8606 46.1363 23.2925C46.3262 22.7244 46.516 22.251 46.7059 21.7776C47.1805 20.6414 47.8449 19.5051 48.6043 18.5583C49.3637 17.5168 50.3129 16.6646 51.357 15.9071C52.0215 15.4337 52.7808 15.0549 53.5402 14.6762C54.2996 14.3922 55.1539 14.1081 55.9133 14.0134C56.7676 13.9187 57.3371 14.1081 57.6219 14.5815C57.9066 15.055 58.0015 15.6231 58.0015 16.0965C58.0015 16.5699 57.8117 17.0433 57.5269 17.4221C57.2422 17.8008 56.9574 18.2742 56.4828 18.653C56.1031 19.0317 55.6285 19.3158 55.1539 19.6945C54.6793 19.9786 54.2047 20.2626 53.7301 20.5467C53.2555 20.7361 52.7808 20.9254 52.4012 21.1148C51.9265 21.3042 51.5469 21.3988 51.2621 21.5882C50.8824 21.6829 50.5976 21.8723 50.3129 22.0616C50.0281 22.251 49.8383 22.5351 49.6484 22.8191C49.4586 23.1032 49.2687 23.4819 49.1738 23.9553C49.0789 24.2394 49.0789 24.5234 49.0789 24.8075C49.0789 25.0916 49.1738 25.3756 49.2687 25.6597C49.3637 25.9437 49.5535 26.1331 49.8383 26.2278C50.0281 26.3225 50.4078 26.4171 50.7875 26.4171C51.1672 26.4171 51.4519 26.3225 51.8316 26.2278C52.2113 26.1331 52.4961 25.9437 52.7808 25.7544C53.0656 25.565 53.3504 25.2809 53.6351 25.0915C53.9199 24.8075 54.2047 24.6181 54.3945 24.3341C54.964 23.766 55.4387 23.1032 56.0082 22.4404C56.4828 21.7776 57.0523 21.1148 57.432 20.452C57.432 20.3573 57.5269 20.2626 57.6219 20.0733C57.7168 19.8839 57.8117 19.6945 57.9066 19.5051C58.0015 19.3158 58.0965 19.2211 58.2863 19.2211C58.3812 19.2211 58.4761 19.3158 58.5711 19.5998C58.666 19.8839 58.5711 20.2626 58.2863 20.5467C58.0965 20.8307 57.8117 21.1148 57.6219 21.3988C57.1472 21.967 56.6726 22.6297 56.198 23.2925C55.7234 23.9553 55.2488 24.5234 54.7742 25.0915C54.2996 25.6597 53.7301 26.2278 53.0656 26.7012C52.4961 27.1746 51.7367 27.5534 50.9773 27.9321C50.5976 28.1215 50.218 28.2162 49.7434 28.2162C49.4586 28.2162 49.0789 28.2162 48.6043 28.2162ZM50.9773 20.7361C51.1672 20.7361 51.2621 20.6414 51.4519 20.5467C51.6418 20.452 51.7367 20.3573 51.7367 20.3573C52.3062 20.0732 52.7808 19.6945 53.2555 19.2211C53.7301 18.7477 54.2047 18.2742 54.5844 17.8008C54.7742 17.5168 55.059 17.2327 55.2488 16.854C55.4387 16.4752 55.5336 16.0965 55.6285 15.7177C55.6285 15.5284 55.6285 15.4337 55.5336 15.2443C55.4387 15.1496 55.2488 15.055 55.1539 15.055C54.964 15.1496 54.6793 15.2443 54.4894 15.4337C54.2996 15.6231 54.1098 15.8124 53.9199 16.0018C53.825 16.0965 53.7301 16.2859 53.5402 16.3805C53.4453 16.4752 53.3504 16.6646 53.2555 16.7593C52.9707 17.138 52.6859 17.5168 52.4012 17.8955C52.1164 18.2742 51.8316 18.653 51.5469 19.0317C51.5469 19.1264 51.4519 19.2211 51.2621 19.4105C51.1672 19.5998 51.0723 19.7892 50.8824 19.9786C50.7875 20.1679 50.6926 20.3573 50.6926 20.5467C50.6926 20.7361 50.7875 20.8307 50.9773 20.7361Z" fill="#2A2524"/>
<path d="M70.7203 28.1215C70.1508 28.1215 69.6762 28.0268 69.1066 27.9321C68.632 27.8374 68.0625 27.6481 67.5879 27.364C67.1133 27.08 66.7336 26.7012 66.5438 26.1331C66.259 25.565 66.1641 24.9969 66.1641 24.4288C66.1641 23.8607 66.3539 23.2926 66.6387 22.8192C66.9234 22.3457 67.398 22.0617 68.0625 21.967C68.5371 21.8723 68.9168 22.0617 69.3914 22.3457C69.7711 22.6298 70.0558 23.0085 70.1508 23.4819C70.1508 23.6713 70.2457 23.9554 70.2457 24.1447C70.2457 24.3341 70.1508 24.6182 70.0559 24.8075C69.9609 24.9969 69.7711 25.1863 69.5812 25.3756C69.3914 25.565 69.3914 25.8491 69.4863 26.0384C69.5812 26.2278 69.7711 26.4172 70.0559 26.6065C70.3406 26.7959 70.6254 26.8906 70.8152 26.8906C71.1 26.9853 71.4797 26.9853 71.7644 26.9853C72.0492 26.9853 72.4289 26.9853 72.7137 26.8906C73.9476 26.7959 75.0867 26.3225 76.1308 25.565C76.7004 25.1863 77.2699 24.7129 77.7445 24.2394C78.2191 23.766 78.6937 23.1979 79.1683 22.6298C79.6429 22.0617 80.0226 21.4936 80.4023 20.8308C80.782 20.2627 81.1617 19.5999 81.4465 19.0318C82.016 17.9902 82.5855 17.0434 83.155 16.0965C83.7246 15.1497 84.2941 14.1081 84.9586 13.1613C85.4332 12.4038 85.8128 11.6463 86.2875 10.9835C86.7621 10.2261 87.3316 9.56326 87.9011 8.90047C88.4707 8.23767 89.0402 7.66955 89.6097 7.10144C90.1792 6.53333 90.8437 6.05992 91.5081 5.58649C92.0777 5.30244 92.6472 4.9237 93.2167 4.63964C93.7863 4.35559 94.4507 4.16621 95.0203 4.07153C95.1152 4.07153 95.305 4.07153 95.5898 4.07153C95.7796 4.07153 96.0644 4.07153 96.2542 4.16622C96.4441 4.16622 96.539 4.26091 96.6339 4.45028C96.7288 4.63965 96.6339 4.73432 96.4441 5.01838C96.3492 5.11306 96.1593 5.20775 96.0644 5.30243C95.8745 5.39712 95.7796 5.39712 95.5898 5.4918C95.2101 5.77586 94.8304 6.05991 94.4507 6.43865C94.071 6.81739 93.6913 7.19614 93.4066 7.48019C92.1726 8.80578 91.1285 10.3207 90.2742 11.9304C89.325 13.54 88.4707 15.1497 87.6164 16.6646C87.3316 17.1381 87.1418 17.6115 86.857 17.9902C86.5722 18.4636 86.3824 18.9371 86.0976 19.4105C85.3382 20.7361 84.4839 21.8723 83.4398 23.0085C82.3957 24.0501 81.2566 24.9969 80.0226 25.8491C78.8836 26.5119 77.7445 27.08 76.5105 27.4587C75.2766 27.8374 74.0426 28.0268 72.7137 28.2162C72.4289 28.2162 72.1441 28.3109 71.7644 28.3109C71.3848 28.1215 71.1 28.1215 70.7203 28.1215ZM88.1859 28.2162C87.996 28.2162 87.8062 28.2162 87.7113 28.2162C87.5214 28.2162 87.3316 28.2162 87.1418 28.1215C86.6671 28.0268 86.1925 27.9321 85.8128 27.7428C85.3382 27.6481 84.9586 27.4587 84.4839 27.1747C84.1992 26.9853 83.8195 26.7959 83.4398 26.4172C83.0601 26.1331 82.7754 25.7544 82.6804 25.4703C82.6804 25.3756 82.5855 25.281 82.5855 25.281C82.5855 25.1863 82.4906 25.1863 82.4906 25.0916C82.3957 24.9022 82.3957 24.7129 82.4906 24.5235C82.5855 24.3341 82.6804 24.2394 82.8703 24.1447C83.155 24.05 83.4398 24.2394 83.6297 24.5235C83.7246 24.7129 83.9144 24.9022 84.1043 25.1863C84.2941 25.4703 84.4839 25.6597 84.6738 25.7544C85.2433 26.2278 85.9078 26.4172 86.5722 26.5119C87.2367 26.5119 87.996 26.4172 88.6605 26.2278C89.3249 26.0384 89.9894 25.6597 90.5589 25.1863C91.1285 24.7129 91.6031 24.2394 92.0777 23.766C92.4574 23.2926 92.8371 22.7245 93.1218 22.0617C93.4066 21.3989 93.6913 20.7361 93.7863 20.0733C93.8812 19.4105 93.9761 18.7477 93.8812 18.0849C93.7863 17.4221 93.5964 16.7593 93.1218 16.1912C92.7421 15.6231 92.2675 15.2444 91.6031 15.055C91.0335 14.8656 90.3691 14.6762 89.7996 14.5816C89.0402 14.4869 88.8503 14.2028 89.23 13.7294C89.325 13.54 89.4199 13.54 89.6097 13.54C90.9386 13.4453 92.1726 13.1613 93.4066 12.6879C94.6406 12.2144 95.6847 11.5516 96.539 10.5101C96.8238 10.2261 97.0136 9.942 97.2034 9.65795C97.3933 9.37389 97.5831 8.99515 97.6781 8.7111C98.0577 7.95362 98.1527 7.29082 98.1527 6.53334C98.1527 5.77586 98.0577 5.11306 97.773 4.54495C97.4882 3.88216 97.1085 3.31404 96.539 2.84062C95.9695 2.3672 95.305 1.98846 94.5456 1.7044C93.5964 1.42035 92.6472 1.32567 91.698 1.32567C90.7488 1.32567 89.7046 1.42036 88.7554 1.60973C87.996 1.70441 87.1418 1.89377 86.3824 2.17783C85.623 2.3672 84.8636 2.65126 84.1043 3.03C82.7754 3.59811 81.5414 4.35559 80.4023 5.30243C79.2633 6.24928 78.314 7.29081 77.4597 8.52172C77.0801 9.08983 76.7004 9.65795 76.4156 10.3207C76.1308 10.9835 75.941 11.6463 75.941 12.3091C75.8461 12.7825 75.8461 13.3507 75.941 13.9188C76.0359 14.4869 76.2258 14.9603 76.6054 15.339C77.0801 15.7178 77.5547 16.0018 78.0293 16.0018C78.5039 16.0018 79.0734 16.0018 79.548 15.8125C80.0226 15.6231 80.4972 15.339 80.9718 15.055C81.4465 14.7709 81.9211 14.4869 82.3007 14.2028C82.4906 14.1081 82.6804 14.0134 82.9652 14.0134C83.155 14.0134 83.3449 14.1081 83.3449 14.4869C83.3449 14.7709 83.155 15.055 82.8703 15.2444C82.5855 15.4337 82.3957 15.6231 82.1109 15.8125C81.7312 16.0965 81.2566 16.3806 80.8769 16.6646C80.4023 16.9487 80.0226 17.2327 79.548 17.4221C79.0734 17.6115 78.5988 17.8009 78.1242 17.8955C77.6496 17.9902 77.0801 18.0849 76.6054 17.9902C75.6562 17.8955 74.8019 17.6115 74.0426 16.9487C73.2832 16.2859 72.9035 15.5284 72.7137 14.5816C72.6187 14.1081 72.6187 13.54 72.6187 13.0666C72.6187 12.4985 72.7137 12.0251 72.9035 11.5516C73.0933 10.8889 73.2832 10.2261 73.6629 9.56326C73.9476 8.99515 74.3273 8.33235 74.707 7.85893C75.0867 7.29082 75.5613 6.8174 76.0359 6.34398C76.5105 5.87055 77.0801 5.4918 77.5547 5.01838C78.1242 4.54495 78.5988 4.16621 79.1683 3.78747C79.6429 3.50341 80.1175 3.21937 80.6871 2.93531C81.1617 2.65126 81.7312 2.3672 82.3007 2.17783C83.3449 1.7044 84.4839 1.32567 85.623 1.04161C86.7621 0.757557 87.9011 0.56819 88.9453 0.37882C89.5148 0.284135 90.1792 0.189453 90.8437 0.189453C91.5081 0.189453 92.0777 0.189444 92.7421 0.284129C92.837 0.284129 92.932 0.284129 93.1218 0.284129C93.3117 0.284129 93.5015 0.284135 93.6913 0.37882C94.3558 0.473505 94.9253 0.568193 95.5898 0.662878C96.2542 0.757563 96.8238 1.04161 97.3933 1.23098C97.9628 1.51503 98.5324 1.79909 99.007 2.17783C99.4816 2.55657 99.9562 3.03 100.431 3.50343C101.19 4.45028 101.665 5.4918 101.665 6.72271C101.76 7.85893 101.57 8.99515 101.095 10.1314C100.905 10.6995 100.526 11.2676 100.146 11.741C99.7663 12.2144 99.2917 12.5932 98.7222 12.9719C97.9628 13.4453 97.2034 13.8241 96.3492 14.1081C95.4949 14.3922 94.6406 14.5816 93.7863 14.7709C94.3558 15.1497 94.9253 15.6231 95.3999 16.0965C95.8745 16.5699 96.3492 17.1381 96.6339 17.8008C96.9187 18.4636 97.1085 19.1264 97.2034 19.7892C97.2984 20.452 97.2984 21.2095 97.2034 21.8723C97.1085 22.5351 96.9187 23.1979 96.6339 23.8607C96.3492 24.5235 95.9695 25.0916 95.4949 25.6597C95.0203 26.2278 94.3558 26.7959 93.7863 27.1747C93.0269 27.6481 92.1726 27.9321 91.2234 28.2162C89.9894 28.1215 89.0402 28.2162 88.1859 28.2162Z" fill="#2A2524"/>
<path d="M101.19 28.2162C100.716 28.2162 100.241 28.0268 99.8613 27.8374C99.2918 27.5534 98.9121 27.0799 98.7223 26.6065C98.5324 26.1331 98.4375 25.565 98.4375 24.9969C98.4375 24.4288 98.5324 23.8606 98.7223 23.2925C98.9121 22.7244 99.102 22.251 99.2918 21.7776C99.7664 20.6414 100.431 19.5051 101.19 18.5583C101.95 17.5168 102.899 16.6646 103.943 15.9071C104.607 15.4337 105.367 15.0549 106.126 14.6762C106.886 14.3922 107.74 14.1081 108.499 14.0134C109.353 13.9187 109.923 14.1081 110.208 14.5815C110.493 15.055 110.587 15.6231 110.587 16.0965C110.587 16.5699 110.398 17.0433 110.113 17.4221C109.828 17.8008 109.543 18.2742 109.069 18.653C108.689 19.0317 108.214 19.3158 107.74 19.6945C107.265 19.9786 106.791 20.2626 106.316 20.5467C105.841 20.7361 105.367 20.9254 104.987 21.1148C104.512 21.3042 104.133 21.3988 103.848 21.5882C103.468 21.6829 103.184 21.8723 102.899 22.0616C102.614 22.251 102.424 22.5351 102.234 22.8191C102.045 23.1032 101.855 23.4819 101.76 23.9553C101.665 24.2394 101.665 24.5234 101.665 24.8075C101.665 25.0916 101.76 25.3756 101.855 25.6597C101.95 25.9437 102.139 26.1331 102.424 26.2278C102.614 26.3225 102.994 26.4171 103.373 26.4171C103.753 26.4171 104.038 26.3225 104.418 26.2278C104.797 26.1331 105.082 25.9437 105.367 25.7544C105.652 25.565 105.936 25.2809 106.221 25.0915C106.506 24.8075 106.791 24.6181 106.98 24.3341C107.55 23.766 108.025 23.1032 108.594 22.4404C109.069 21.7776 109.638 21.1148 110.018 20.452C110.018 20.3573 110.113 20.2626 110.208 20.0733C110.303 19.8839 110.398 19.6945 110.493 19.5051C110.587 19.3158 110.682 19.2211 110.872 19.2211C111.062 19.2211 111.062 19.3158 111.157 19.5998C111.252 19.8839 111.157 20.2626 110.872 20.5467C110.682 20.8307 110.398 21.1148 110.208 21.3988C109.733 21.967 109.259 22.6297 108.784 23.2925C108.309 23.9553 107.835 24.5234 107.36 25.0915C106.886 25.6597 106.316 26.2278 105.652 26.7012C105.082 27.1746 104.323 27.5534 103.563 27.9321C103.184 28.1215 102.804 28.2162 102.329 28.2162C102.045 28.2162 101.665 28.2162 101.19 28.2162ZM103.563 20.7361C103.753 20.7361 103.848 20.6414 104.038 20.5467C104.228 20.452 104.323 20.3573 104.323 20.3573C104.892 20.0732 105.367 19.6945 105.841 19.2211C106.316 18.7477 106.791 18.2742 107.17 17.8008C107.36 17.5168 107.645 17.2327 107.835 16.854C108.025 16.4752 108.12 16.0965 108.214 15.7177C108.214 15.5284 108.214 15.4337 108.12 15.2443C108.025 15.1496 107.835 15.055 107.74 15.055C107.55 15.1496 107.265 15.2443 107.075 15.4337C106.886 15.6231 106.696 15.8124 106.506 16.0018C106.411 16.0965 106.316 16.2859 106.126 16.3805C106.031 16.4752 105.936 16.6646 105.841 16.7593C105.557 17.138 105.272 17.5168 104.987 17.8955C104.702 18.2742 104.418 18.653 104.133 19.0317C104.133 19.1264 104.038 19.2211 103.848 19.4105C103.753 19.5998 103.658 19.7892 103.468 19.9786C103.373 20.1679 103.279 20.3573 103.279 20.5467C103.279 20.7361 103.373 20.8307 103.563 20.7361Z" fill="#2A2524"/>
<path d="M122.547 4.26069C122.737 4.26069 122.926 4.35539 122.926 4.45007C123.021 4.54476 123.021 4.73413 123.021 4.9235C123.021 5.20755 123.021 5.39691 122.926 5.68097C122.831 5.96502 122.831 6.1544 122.642 6.34377C121.503 8.14279 120.364 9.9418 119.319 11.7408C118.56 12.9717 117.896 14.1079 117.041 15.2441C116.282 16.3804 115.523 17.6113 114.763 18.7475C114.668 18.9369 114.478 19.2209 114.383 19.4103C114.289 19.5996 114.099 19.8837 114.004 20.0731C113.719 20.5465 113.434 21.1146 113.149 21.588C112.865 22.0615 112.58 22.6296 112.2 23.103C112.105 23.2924 112.01 23.4817 111.821 23.6711C111.631 23.8605 111.536 24.1445 111.346 24.4286C111.251 24.7126 111.156 24.902 111.061 25.1861C111.061 25.4701 111.061 25.6595 111.156 25.8489C111.251 26.0382 111.441 26.0382 111.631 26.0382C111.821 26.0382 112.01 26.0382 112.2 25.9435C112.58 25.7542 112.96 25.5648 113.339 25.1861C113.719 24.902 114.004 24.5233 114.289 24.2392C114.763 23.7658 115.143 23.1977 115.523 22.7243C115.902 22.1561 116.282 21.6827 116.662 21.1146C116.662 21.0199 116.756 20.9252 116.946 20.6412C117.136 20.3571 117.326 20.0731 117.516 19.8837C117.706 19.5996 117.896 19.505 118.085 19.3156C118.275 19.2209 118.37 19.3156 118.465 19.5997C118.465 19.789 118.465 19.9784 118.37 20.1678C118.275 20.3571 118.18 20.5465 118.085 20.7359C117.99 20.9252 117.801 21.1146 117.706 21.304C117.516 21.4933 117.421 21.588 117.326 21.7774C116.756 22.6296 116.187 23.387 115.617 24.1445C115.048 24.902 114.289 25.5648 113.529 26.2276C113.055 26.701 112.58 27.0798 112.105 27.3638C111.631 27.6479 111.061 27.9319 110.397 28.1213C110.302 28.1213 110.112 28.216 110.017 28.216C109.922 28.216 109.827 28.216 109.637 28.216C109.258 28.216 108.973 28.0266 108.593 27.8372C108.308 27.6479 108.024 27.3638 107.929 26.9851C107.739 26.5116 107.739 25.9435 107.834 25.3754C107.929 24.8073 108.024 24.2392 108.308 23.6711C108.498 23.103 108.783 22.5349 109.068 22.0615C109.353 21.588 109.637 21.1146 109.827 20.6412C110.302 19.8837 110.776 19.1262 111.251 18.3688C111.726 17.6113 112.2 16.8538 112.675 16.0963C113.149 15.2441 113.719 14.4867 114.194 13.6345C114.668 12.7823 115.143 12.0249 115.617 11.1727C116.092 10.4152 116.567 9.56305 117.136 8.80557C117.706 8.04809 118.18 7.19593 118.56 6.43845C118.655 6.24908 118.75 5.96503 118.845 5.77566C118.94 5.58629 118.94 5.30223 119.035 5.01817C119.13 4.73412 119.224 4.54476 119.414 4.45007C119.604 4.35539 119.794 4.35538 120.079 4.35538C120.269 4.35538 120.458 4.35538 120.648 4.35538C120.838 4.35538 121.028 4.35538 121.218 4.26069C121.408 4.26069 121.503 4.16602 121.692 4.16602C122.167 4.16602 122.357 4.16601 122.547 4.26069Z" fill="#2A2524"/>
<path d="M130.047 4.26069C130.237 4.26069 130.426 4.35539 130.426 4.45007C130.521 4.54476 130.521 4.73413 130.521 4.9235C130.521 5.20755 130.521 5.39691 130.426 5.68097C130.331 5.96502 130.331 6.1544 130.142 6.34377C129.003 8.14279 127.863 9.9418 126.819 11.7408C126.06 12.9717 125.396 14.1079 124.541 15.2441C123.782 16.3804 123.022 17.6113 122.263 18.7475C122.168 18.9369 121.978 19.2209 121.883 19.4103C121.788 19.5996 121.599 19.8837 121.504 20.0731C121.219 20.5465 120.934 21.1146 120.649 21.588C120.365 22.0615 120.08 22.6296 119.7 23.103C119.605 23.2924 119.51 23.4817 119.321 23.6711C119.131 23.8605 119.036 24.1445 118.846 24.4286C118.751 24.7126 118.656 24.902 118.561 25.1861C118.561 25.4701 118.561 25.6595 118.656 25.8489C118.751 26.0382 118.941 26.0382 119.131 26.0382C119.321 26.0382 119.51 26.0382 119.7 25.9435C120.08 25.7542 120.46 25.5648 120.839 25.1861C121.219 24.902 121.504 24.5233 121.789 24.2392C122.263 23.7658 122.643 23.1977 123.022 22.7243C123.402 22.1561 123.782 21.6827 124.162 21.1146C124.162 21.0199 124.256 20.9252 124.446 20.6412C124.636 20.3571 124.826 20.0731 125.016 19.8837C125.206 19.5996 125.396 19.505 125.585 19.3156C125.775 19.2209 125.87 19.3156 125.965 19.5997C125.965 19.789 125.965 19.9784 125.87 20.1678C125.775 20.3571 125.68 20.5465 125.585 20.7359C125.49 20.9252 125.301 21.1146 125.206 21.304C125.016 21.4933 124.921 21.588 124.826 21.7774C124.256 22.6296 123.687 23.387 123.117 24.1445C122.548 24.902 121.788 25.5648 121.029 26.2276C120.555 26.701 120.08 27.0798 119.605 27.3638C119.131 27.6479 118.561 27.9319 117.897 28.1213C117.802 28.1213 117.612 28.216 117.517 28.216C117.422 28.216 117.327 28.216 117.137 28.216C116.758 28.216 116.473 28.0266 116.093 27.8372C115.808 27.6479 115.524 27.3638 115.429 26.9851C115.239 26.5116 115.239 25.9435 115.334 25.3754C115.429 24.8073 115.524 24.2392 115.808 23.6711C115.998 23.103 116.283 22.5349 116.568 22.0615C116.853 21.588 117.137 21.1146 117.327 20.6412C117.802 19.8837 118.276 19.1262 118.751 18.3688C119.226 17.6113 119.7 16.8538 120.175 16.0963C120.649 15.2441 121.219 14.4867 121.694 13.6345C122.168 12.7823 122.643 12.0249 123.117 11.1727C123.592 10.4152 124.067 9.56305 124.636 8.80557C125.206 8.04809 125.68 7.19593 126.06 6.43845C126.155 6.24908 126.25 5.96503 126.345 5.77566C126.44 5.58629 126.44 5.30223 126.535 5.01817C126.63 4.73412 126.724 4.54476 126.914 4.45007C127.104 4.35539 127.294 4.35538 127.579 4.35538C127.769 4.35538 127.958 4.35538 128.148 4.35538C128.338 4.35538 128.528 4.35538 128.718 4.26069C128.908 4.26069 129.003 4.16602 129.192 4.16602C129.667 4.16602 129.857 4.16601 130.047 4.26069Z" fill="#2A2524"/>
<path d="M125.87 28.0267C125.3 27.8373 124.731 27.5533 124.351 27.1745C123.971 26.7958 123.687 26.2277 123.592 25.5649C123.592 25.1861 123.592 24.8074 123.687 24.4286C123.782 24.0499 123.782 23.6712 123.877 23.2924C123.971 22.6296 124.256 21.9668 124.541 21.3987C125.205 20.1678 126.06 19.0316 127.104 17.9901C127.673 17.422 128.243 16.9485 128.812 16.4751C129.192 16.1911 129.572 15.907 129.952 15.6229C130.331 15.3389 130.806 15.1495 131.186 14.9602C131.66 14.7708 132.04 14.5814 132.514 14.4867C132.989 14.392 133.464 14.2974 133.938 14.2974C134.508 14.2974 134.982 14.392 135.457 14.4867C135.932 14.6761 136.216 14.9602 136.501 15.4336C136.881 16.0964 137.071 16.6645 136.976 17.3273C136.881 17.9901 136.786 18.6529 136.596 19.3157C136.216 20.6413 135.647 21.8722 134.887 23.1031C134.128 24.334 133.179 25.2808 132.04 26.133C131.375 26.6064 130.616 27.0798 129.762 27.4586C128.907 27.8373 128.053 28.1214 127.199 28.216C127.009 28.216 126.724 28.216 126.534 28.216C126.345 28.216 126.155 28.1214 125.87 28.0267ZM128.243 26.6064C128.907 26.3223 129.572 25.8489 130.046 25.2808C130.521 24.7127 130.996 24.1446 131.47 23.5765C131.66 23.3871 131.755 23.1977 131.85 22.9137C131.945 22.7243 132.135 22.5349 132.23 22.2509C132.514 21.7775 132.894 21.2094 133.084 20.6412C133.369 20.0731 133.653 19.505 133.843 19.0316C134.033 18.6529 134.128 18.2741 134.223 17.8954C134.318 17.5167 134.413 17.1379 134.508 16.6645C134.508 16.3804 134.508 16.1911 134.413 15.8123C134.318 15.5283 134.128 15.3389 133.843 15.2442C133.464 15.1495 133.179 15.2442 132.894 15.4336C132.609 15.6229 132.325 15.8123 132.04 16.0964C131.755 16.3804 131.47 16.5698 131.28 16.8539C130.996 17.0432 130.806 17.3273 130.521 17.6113C130.046 18.1794 129.572 18.6529 129.192 19.3157C128.812 19.8838 128.433 20.4519 128.053 21.1147C127.768 21.6828 127.484 22.1562 127.199 22.7243C126.914 23.2924 126.724 23.8605 126.439 24.4286C126.345 24.7127 126.25 25.0914 126.155 25.4702C126.06 25.8489 126.155 26.2277 126.345 26.5117C126.439 26.7011 126.629 26.7958 126.914 26.7958C127.199 26.7958 127.389 26.7958 127.579 26.7958C127.863 26.7958 128.053 26.7011 128.243 26.6064Z" fill="#2A2524"/>
</svg>
